<svg width="60" height="60" viewBox="0 0 60 60" fill="none" xmlns="http://www.w3.org/2000/svg">
<path d="M45.7498 14.2749C44.7748 13.2999 43.1998 13.2999 42.2248 14.2749L29.9998 26.4749L17.7748 14.2499C16.7998 13.2749 15.2248 13.2749 14.2498 14.2499C13.2748 15.2249 13.2748 16.7999 14.2498 17.7749L26.4748 29.9999L14.2498 42.2249C13.2748 43.1999 13.2748 44.7749 14.2498 45.7499C15.2248 46.7249 16.7998 46.7249 17.7748 45.7499L29.9998 33.5249L42.2248 45.7499C43.1998 46.7249 44.7748 46.7249 45.7498 45.7499C46.7248 44.7749 46.7248 43.1999 45.7498 42.2249L33.5248 29.9999L45.7498 17.7749C46.6998 16.8249 46.6998 15.2249 45.7498 14.2749Z" fill="#E0AED0"/>
</svg>
