<svg width="61" height="27" viewBox="0 0 61 27" fill="none" xmlns="http://www.w3.org/2000/svg">
<path d="M9 10.5892V0H10.4368V10.5892H9Z" fill="white"/>
<path d="M15.7074 13.7782C14.9635 13.7782 14.3012 13.6408 13.7203 13.3662C13.1497 13.0915 12.6911 12.705 12.3446 12.2066L13.2312 11.3063C13.5267 11.6827 13.8783 11.9675 14.2859 12.1608C14.6935 12.3642 15.1775 12.466 15.738 12.466C16.4819 12.466 17.0678 12.2676 17.4958 11.8709C17.934 11.4844 18.1531 10.9605 18.1531 10.2993V8.49883L18.3977 6.8662L18.1531 5.24883V3.34155H19.5288V10.2993C19.5288 10.991 19.3657 11.5962 19.0396 12.115C18.7237 12.6338 18.2754 13.0407 17.6945 13.3357C17.1239 13.6307 16.4615 13.7782 15.7074 13.7782ZM15.7074 10.4671C15.0451 10.4671 14.4489 10.3095 13.919 9.99413C13.3993 9.6788 12.9866 9.24648 12.6809 8.69718C12.3752 8.13772 12.2224 7.51213 12.2224 6.82042C12.2224 6.12872 12.3752 5.5133 12.6809 4.97418C12.9866 4.42488 13.3993 3.99257 13.919 3.67723C14.4489 3.35172 15.0451 3.18897 15.7074 3.18897C16.2781 3.18897 16.7825 3.30086 17.2207 3.52465C17.6589 3.74843 18.0053 4.06377 18.2601 4.47066C18.525 4.86737 18.6677 5.33529 18.6881 5.87441V7.79695C18.6575 8.3259 18.5098 8.79382 18.2448 9.2007C17.99 9.59742 17.6436 9.90767 17.2054 10.1315C16.7672 10.3552 16.2679 10.4671 15.7074 10.4671ZM15.9826 9.17019C16.4309 9.17019 16.8233 9.07355 17.1595 8.88028C17.506 8.68701 17.771 8.41745 17.9544 8.0716C18.1378 7.71557 18.2295 7.3036 18.2295 6.83568C18.2295 6.36776 18.1327 5.96088 17.9391 5.61502C17.7557 5.259 17.4958 4.98435 17.1595 4.79108C16.8233 4.58764 16.4258 4.48592 15.9673 4.48592C15.5087 4.48592 15.1062 4.58764 14.7597 4.79108C14.4133 4.98435 14.1381 5.259 13.9343 5.61502C13.7407 5.96088 13.6439 6.36268 13.6439 6.82042C13.6439 7.27817 13.7407 7.68505 13.9343 8.04108C14.1381 8.39711 14.4133 8.67684 14.7597 8.88028C15.1164 9.07355 15.524 9.17019 15.9826 9.17019Z" fill="white"/>
<path d="M24.8649 10.7418C24.1516 10.7418 23.5096 10.5739 22.939 10.2383C22.3683 9.90258 21.9149 9.44992 21.5786 8.88028C21.2423 8.30047 21.0742 7.65454 21.0742 6.94249C21.0742 6.24061 21.2423 5.60994 21.5786 5.05047C21.9149 4.48083 22.3683 4.02817 22.939 3.69249C23.5096 3.35681 24.1516 3.18897 24.8649 3.18897C25.5681 3.18897 26.205 3.35681 26.7756 3.69249C27.3565 4.018 27.815 4.46557 28.1513 5.03521C28.4876 5.60485 28.6557 6.24061 28.6557 6.94249C28.6557 7.65454 28.4876 8.30047 28.1513 8.88028C27.815 9.44992 27.3565 9.90258 26.7756 10.2383C26.205 10.5739 25.5681 10.7418 24.8649 10.7418ZM24.8649 9.41432C25.3235 9.41432 25.7311 9.30751 26.0878 9.0939C26.4444 8.88028 26.7247 8.59038 26.9285 8.22418C27.1323 7.84781 27.2342 7.42058 27.2342 6.94249C27.2342 6.47457 27.1272 6.05751 26.9132 5.69131C26.7094 5.32512 26.4291 5.0403 26.0725 4.83685C25.726 4.62324 25.3235 4.51643 24.8649 4.51643C24.4064 4.51643 23.9988 4.62324 23.6421 4.83685C23.2854 5.0403 23.0052 5.32512 22.8014 5.69131C22.5976 6.05751 22.4957 6.47457 22.4957 6.94249C22.4957 7.42058 22.5976 7.84781 22.8014 8.22418C23.0052 8.59038 23.2854 8.88028 23.6421 9.0939C23.9988 9.30751 24.4064 9.41432 24.8649 9.41432Z" fill="white"/>
<path d="M30.2058 10.5892V3.34155H31.5814V10.5892H30.2058ZM31.5814 6.45423L31.0617 6.22535C31.0617 5.29969 31.2757 4.56221 31.7037 4.01291C32.1317 3.46361 32.7482 3.18897 33.5533 3.18897C33.9201 3.18897 34.2513 3.25509 34.5468 3.38732C34.8423 3.50939 35.1175 3.71792 35.3722 4.01291L34.4704 4.94366C34.3175 4.78091 34.1494 4.66393 33.966 4.59272C33.7825 4.52152 33.5685 4.48592 33.324 4.48592C32.8145 4.48592 32.3967 4.64867 32.0706 4.97418C31.7445 5.29969 31.5814 5.79304 31.5814 6.45423Z" fill="white"/>
<path d="M9 25.8474V15.2582H10.4368V25.8474H9ZM9.97827 21.1937V19.8815H15.5116V21.1937H9.97827ZM9.97827 16.5704V15.2582H15.7714V16.5704H9.97827Z" fill="white"/>
<path d="M17.4132 25.8474V18.5998H18.7889V25.8474H17.4132ZM18.7889 21.7124L18.2692 21.4836C18.2692 20.5579 18.4832 19.8204 18.9112 19.2711C19.3391 18.7218 19.9557 18.4472 20.7607 18.4472C21.1275 18.4472 21.4587 18.5133 21.7542 18.6455C22.0498 18.7676 22.3249 18.9761 22.5797 19.2711L21.6778 20.2019C21.525 20.0391 21.3568 19.9221 21.1734 19.8509C20.99 19.7797 20.776 19.7441 20.5314 19.7441C20.0219 19.7441 19.6041 19.9069 19.278 20.2324C18.9519 20.5579 18.7889 21.0513 18.7889 21.7124Z" fill="white"/>
<path d="M26.3971 26C25.7347 26 25.1335 25.8372 24.5934 25.5117C24.0533 25.1761 23.6253 24.7234 23.3094 24.1538C23.0037 23.5841 22.8508 22.9433 22.8508 22.2312C22.8508 21.5192 23.0037 20.8783 23.3094 20.3087C23.6253 19.739 24.0482 19.2864 24.5781 18.9507C25.1182 18.615 25.7245 18.4472 26.3971 18.4472C26.9473 18.4472 27.4365 18.5642 27.8645 18.7981C28.3026 19.0219 28.6542 19.3372 28.9192 19.7441C29.1841 20.1408 29.3319 20.6037 29.3624 21.1326V23.3146C29.3319 23.8333 29.1841 24.2962 28.9192 24.7031C28.6644 25.1099 28.3179 25.4304 27.8797 25.6643C27.4518 25.8881 26.9575 26 26.3971 26ZM26.6263 24.7031C27.3091 24.7031 27.8594 24.4742 28.2772 24.0164C28.695 23.5485 28.9039 22.9534 28.9039 22.2312C28.9039 21.7328 28.8071 21.3005 28.6134 20.9343C28.43 20.5579 28.1651 20.268 27.8186 20.0646C27.4721 19.8509 27.0696 19.7441 26.6111 19.7441C26.1525 19.7441 25.7449 19.8509 25.3882 20.0646C25.0418 20.2782 24.7666 20.5732 24.5628 20.9495C24.3692 21.3157 24.2724 21.7379 24.2724 22.216C24.2724 22.7042 24.3692 23.1365 24.5628 23.5129C24.7666 23.8791 25.0469 24.169 25.4035 24.3826C25.7602 24.5962 26.1678 24.7031 26.6263 24.7031ZM28.8122 25.8474V23.8944L29.072 22.1244L28.8122 20.3697V18.5998H30.2031V25.8474H28.8122Z" fill="white"/>
<path d="M37.3419 25.8474V21.6209C37.3419 21.0716 37.1687 20.6189 36.8222 20.2629C36.4757 19.9069 36.0273 19.7289 35.4771 19.7289C35.1102 19.7289 34.7841 19.8103 34.4988 19.973C34.2135 20.1358 33.9893 20.3595 33.8262 20.6444C33.6632 20.9292 33.5817 21.2547 33.5817 21.6209L33.0161 21.3005C33.0161 20.7512 33.1384 20.2629 33.383 19.8357C33.6275 19.4084 33.9689 19.0728 34.4071 18.8286C34.8453 18.5743 35.3395 18.4472 35.8898 18.4472C36.4401 18.4472 36.9241 18.5845 37.3419 18.8592C37.7699 19.1338 38.1062 19.4949 38.3507 19.9425C38.5953 20.3799 38.7176 20.8478 38.7176 21.3462V25.8474H37.3419ZM32.206 25.8474V18.5998H33.5817V25.8474H32.206Z" fill="white"/>
<path d="M45.2269 25.8474L41.8335 22.1397L45.1963 18.5998H46.8624L43.1175 22.5059L43.1786 21.7124L47 25.8474H45.2269ZM40.5801 25.8474V14.9531H41.9558V25.8474H40.5801Z" fill="white"/>
<path d="M6 9L0 6.01124V4.98876L6 2V3.43146L1.04471 5.77528V5.24045L6 7.58427V9Z" fill="#3495EA"/>
<path d="M48 27L52.1509 16H53.4052L49.2692 27H48Z" fill="#3495EA"/>
<path d="M54.6542 19.7853V18.4903L61 21.194V22.119L54.6542 24.8228V23.542L59.8951 21.4217V21.9056L54.6542 19.7853Z" fill="#3495EA"/>
</svg>
