<svg width="44" height="51" viewBox="0 0 44 51" fill="none" xmlns="http://www.w3.org/2000/svg">
<path d="M24.207 4.16797C22.9863 2.94727 21.0039 2.94727 19.7832 4.16797L4.1582 19.793C2.9375 21.0137 2.9375 22.9961 4.1582 24.2168C5.37891 25.4375 7.36133 25.4375 8.58203 24.2168L22 10.7988L35.418 24.207C36.6387 25.4277 38.6211 25.4277 39.8418 24.207C41.0625 22.9863 41.0625 21.0039 39.8418 19.7832L24.2168 4.1582L24.207 4.16797ZM39.832 38.543L24.207 22.918C22.9863 21.6973 21.0039 21.6973 19.7832 22.918L4.1582 38.543C2.9375 39.7637 2.9375 41.7461 4.1582 42.9668C5.37891 44.1875 7.36133 44.1875 8.58203 42.9668L22 29.5488L35.418 42.957C36.6387 44.1777 38.6211 44.1777 39.8418 42.957C41.0625 41.7363 41.0625 39.7539 39.8418 38.5332L39.832 38.543Z" fill="white"/>
</svg>
