<svg width="100" height="100" viewBox="0 0 100 100" fill="none" xmlns="http://www.w3.org/2000/svg">
<path fill-rule="evenodd" clip-rule="evenodd" d="M20 0C8.95431 0 0 8.9543 0 20V80C0 91.0457 8.9543 100 20 100H80C91.0457 100 100 91.0457 100 80V20C100 8.95431 91.0457 0 80 0H20ZM50.6642 16.9813C59.783 16.9408 68.5401 20.3878 74.9236 26.5321C81.3146 32.5861 84.886 40.8032 84.841 49.3475C84.8523 67.1312 69.4006 81.7932 50.5518 81.8904C44.8269 81.9385 39.1849 80.5987 34.1664 77.9994L16 82.421L20.8744 65.619C17.9914 60.686 16.4457 55.1571 16.375 49.5244C16.375 49.4828 16.3745 49.4417 16.3741 49.4005C16.3736 49.3594 16.3731 49.3183 16.3731 49.2767C16.3731 31.5603 31.8267 16.9814 50.6061 16.9813H50.6642ZM36.2474 72.6935C40.6042 75.1483 45.5896 76.4326 50.6642 76.4077H50.758C56.0004 76.4196 61.1355 75.0074 65.5498 72.3398C73.8963 67.4495 78.9862 58.815 78.9862 49.5473C78.9862 34.8288 66.1479 22.717 50.5462 22.717C34.9444 22.717 22.1061 34.8288 22.1061 49.5473C22.1061 54.5383 23.5819 59.4303 26.3674 63.6735L27.1173 64.7346L24.3052 74.8159L35.1225 72.1629L36.2474 72.6935ZM65.1749 55.8915L67.2371 56.7757H67.2183C67.4229 56.8675 67.6123 56.9867 67.7808 57.1295V58.3676C67.6439 59.22 67.3908 60.0513 67.0309 60.8437C66.7758 61.2392 66.4599 61.5968 66.0935 61.9048C65.906 62.0817 65.7185 62.2144 65.531 62.347C65.3436 62.4796 65.1561 62.6123 64.9686 62.7891L64.5937 63.1429C64.1793 63.417 63.7406 63.654 63.2814 63.8503C62.4075 64.2711 61.4491 64.5122 60.4692 64.5578H58.5944C58.3132 64.4694 57.9852 64.4251 57.6571 64.3809C57.329 64.3367 57.0009 64.2925 56.7197 64.2041C51.7385 62.9713 47.1247 60.6721 43.2402 57.4832C42.7882 56.9684 42.2861 56.4947 41.7404 56.0683L40.9905 55.3609C38.0915 52.7975 35.7373 49.7361 34.0539 46.3408L33.8664 45.8102C33.2686 44.5271 32.9498 43.1438 32.929 41.7423C32.9555 39.75 33.6807 37.822 34.9913 36.2596C35.1478 36.1119 35.2717 35.9334 35.3901 35.7627C35.5554 35.5245 35.7102 35.3014 35.9286 35.1984C36.1161 35.1099 36.3037 34.9773 36.4911 34.8446C36.6786 34.7119 36.866 34.5793 37.0535 34.4909L37.241 34.314C37.4285 34.314 37.616 34.2698 37.8034 34.2256C37.9909 34.1814 38.1784 34.1372 38.3658 34.1372H40.4281C40.9693 34.2628 41.439 34.5792 41.7404 35.0215C42.865 37.2104 43.8663 39.4538 44.74 41.7423C44.8149 42.0453 44.8203 42.3599 44.7556 42.665C44.6909 42.97 44.5578 43.2585 44.3651 43.511C44.1965 43.67 44.1038 43.8289 44.0016 44.004C43.8765 44.2184 43.7373 44.4569 43.4277 44.749C42.8653 45.2796 42.2859 45.8986 42.1153 46.164C41.9452 46.429 41.8788 46.7419 41.9279 47.0482C42.0135 47.3009 42.1399 47.5395 42.3028 47.7557L42.4903 48.1094C43.4659 49.6716 44.6644 51.0999 46.0523 52.3541C46.2397 52.5309 46.474 52.7077 46.7082 52.8845C46.9427 53.0615 47.1771 53.2384 47.3646 53.4154C48.9485 54.8342 50.7902 55.9724 52.8015 56.7757L53.7389 57.1295C53.9457 57.3155 54.2069 57.4387 54.4887 57.4832H54.6763C55.0699 57.4903 55.4355 57.2834 55.6136 56.9526C56.8132 55.6593 57.4203 54.9663 57.764 54.5739C58.1723 54.1078 58.2089 54.066 58.4257 53.9459C58.8242 53.7247 59.2758 53.603 59.738 53.5922C59.8318 53.5922 59.9256 53.6365 60.0193 53.6807C60.113 53.7249 60.2068 53.7691 60.3005 53.7691C62.1752 54.6534 65.1749 55.8915 65.1749 55.8915Z" fill="#175892"/>
</svg>
