<svg width="50" height="44" viewBox="0 0 50 44" fill="none" xmlns="http://www.w3.org/2000/svg">
<g clip-path="url(#clip0_1202_73)">
<path d="M45.957 24.082C47.1777 22.8613 47.1777 20.8789 45.957 19.6582L30.332 4.0332C29.1113 2.8125 27.1289 2.8125 25.9082 4.0332C24.6875 5.25391 24.6875 7.23633 25.9082 8.45703L39.3262 21.875L25.918 35.293C24.6973 36.5137 24.6973 38.4961 25.918 39.7168C27.1387 40.9375 29.1211 40.9375 30.3418 39.7168L45.9668 24.0918L45.957 24.082ZM11.582 39.707L27.207 24.082C28.4277 22.8613 28.4277 20.8789 27.207 19.6582L11.582 4.0332C10.3613 2.8125 8.37891 2.8125 7.1582 4.0332C5.9375 5.25391 5.9375 7.23633 7.1582 8.45703L20.5762 21.875L7.16797 35.293C5.94727 36.5137 5.94727 38.4961 7.16797 39.7168C8.38867 40.9375 10.3711 40.9375 11.5918 39.7168L11.582 39.707Z" fill="white"/>
</g>
<defs>
<clipPath id="clip0_1202_73">
<rect width="43.75" height="50" fill="white" transform="translate(50) rotate(90)"/>
</clipPath>
</defs>
</svg>
