<svg width="15" height="15" viewBox="0 0 15 15" fill="none" xmlns="http://www.w3.org/2000/svg">
<g clip-path="url(#clip0_1248_39)">
<path d="M8.22434 0.777965L9.91614 4.206C10.0338 4.44442 10.2613 4.60963 10.5244 4.6478L14.3076 5.19755C14.9703 5.29392 15.2347 6.10807 14.7553 6.57521L12.0178 9.24355C11.8276 9.42909 11.7406 9.69661 11.7857 9.9585L12.4318 13.7263C12.545 14.3862 11.8523 14.8894 11.2597 14.578L7.87609 12.7992C7.64079 12.6757 7.3595 12.6757 7.12421 12.7992L3.74061 14.578C3.14799 14.8897 2.45525 14.3862 2.56852 13.7263L3.21464 9.9585C3.25969 9.69661 3.17271 9.42909 2.98247 9.24355L0.244986 6.57521C-0.234363 6.10775 0.03003 5.29361 0.692733 5.19755L4.4759 4.6478C4.73904 4.60963 4.96651 4.44442 5.08416 4.206L6.77596 0.777965C7.07196 0.177527 7.92803 0.177527 8.22434 0.777965Z" fill="url(#paint0_linear_1248_39)"/>
</g>
<defs>
<linearGradient id="paint0_linear_1248_39" x1="7.50015" y1="0.327637" x2="7.50015" y2="14.6726" gradientUnits="userSpaceOnUse">
<stop stop-color="#E9CA32"/>
<stop offset="1" stop-color="#FFA800"/>
</linearGradient>
<clipPath id="clip0_1248_39">
<rect width="15" height="15" fill="white"/>
</clipPath>
</defs>
</svg>
