<svg width="100" height="100" viewBox="0 0 100 100" fill="none" xmlns="http://www.w3.org/2000/svg">
<path d="M14.2857 0C6.40625 0 0 6.40625 0 14.2857V85.7143C0 93.5938 6.40625 100 14.2857 100H36.2054V67.4554H24.4196V50H36.2054V42.4777C36.2054 23.0357 45 14.0179 64.1071 14.0179C67.7232 14.0179 73.9732 14.7321 76.5402 15.4464V31.25C75.2009 31.1161 72.8571 31.0268 69.933 31.0268C60.558 31.0268 56.942 34.5759 56.942 43.7946V50H75.6027L72.3884 67.4554H56.9196V100H85.7143C93.5938 100 100 93.5938 100 85.7143V14.2857C100 6.40625 93.5938 0 85.7143 0H14.2857Z" fill="#175892"/>
</svg>
