<svg width="61" height="15" viewBox="0 0 61 15" fill="none" xmlns="http://www.w3.org/2000/svg">
<g clip-path="url(#clip0_1248_50)">
<path d="M54.2243 0.777965L55.9161 4.206C56.0338 4.44442 56.2613 4.60963 56.5244 4.6478L60.3076 5.19755C60.9703 5.29392 61.2347 6.10807 60.7553 6.57521L58.0178 9.24355C57.8276 9.42909 57.7406 9.69661 57.7857 9.9585L58.4318 13.7263C58.545 14.3862 57.8523 14.8894 57.2597 14.578L53.8761 12.7992C53.6408 12.6757 53.3595 12.6757 53.1242 12.7992L49.7406 14.578C49.148 14.8897 48.4552 14.3862 48.5685 13.7263L49.2146 9.9585C49.2597 9.69661 49.1727 9.42909 48.9825 9.24355L46.245 6.57521C45.7656 6.10775 46.03 5.29361 46.6927 5.19755L50.4759 4.6478C50.739 4.60963 50.9665 4.44442 51.0842 4.206L52.776 0.777965C53.072 0.177527 53.928 0.177527 54.2243 0.777965Z" fill="url(#paint0_linear_1248_50)"/>
</g>
<g clip-path="url(#clip1_1248_50)">
<path d="M31.2243 0.777965L32.9161 4.206C33.0338 4.44442 33.2613 4.60963 33.5244 4.6478L37.3076 5.19755C37.9703 5.29392 38.2347 6.10807 37.7553 6.57521L35.0178 9.24355C34.8276 9.42909 34.7406 9.69661 34.7857 9.9585L35.4318 13.7263C35.545 14.3862 34.8523 14.8894 34.2597 14.578L30.8761 12.7992C30.6408 12.6757 30.3595 12.6757 30.1242 12.7992L26.7406 14.578C26.148 14.8897 25.4552 14.3862 25.5685 13.7263L26.2146 9.9585C26.2597 9.69661 26.1727 9.42909 25.9825 9.24355L23.245 6.57521C22.7656 6.10775 23.03 5.29361 23.6927 5.19755L27.4759 4.6478C27.739 4.60963 27.9665 4.44442 28.0842 4.206L29.776 0.777965C30.072 0.177527 30.928 0.177527 31.2243 0.777965Z" fill="url(#paint1_linear_1248_50)"/>
</g>
<g clip-path="url(#clip2_1248_50)">
<path d="M8.22434 0.777965L9.91614 4.206C10.0338 4.44442 10.2613 4.60963 10.5244 4.6478L14.3076 5.19755C14.9703 5.29392 15.2347 6.10807 14.7553 6.57521L12.0178 9.24355C11.8276 9.42909 11.7406 9.69661 11.7857 9.9585L12.4318 13.7263C12.545 14.3862 11.8523 14.8894 11.2597 14.578L7.87609 12.7992C7.64079 12.6757 7.3595 12.6757 7.12421 12.7992L3.74061 14.578C3.14799 14.8897 2.45525 14.3862 2.56852 13.7263L3.21464 9.9585C3.25969 9.69661 3.17271 9.42909 2.98247 9.24355L0.244986 6.57521C-0.234363 6.10775 0.03003 5.29361 0.692733 5.19755L4.4759 4.6478C4.73904 4.60963 4.96651 4.44442 5.08416 4.206L6.77596 0.777965C7.07196 0.177527 7.92803 0.177527 8.22434 0.777965Z" fill="url(#paint2_linear_1248_50)"/>
</g>
<defs>
<linearGradient id="paint0_linear_1248_50" x1="53.5001" y1="0.327637" x2="53.5001" y2="14.6726" gradientUnits="userSpaceOnUse">
<stop stop-color="#E9CA32"/>
<stop offset="1" stop-color="#FFA800"/>
</linearGradient>
<linearGradient id="paint1_linear_1248_50" x1="30.5001" y1="0.327637" x2="30.5001" y2="14.6726" gradientUnits="userSpaceOnUse">
<stop stop-color="#E9CA32"/>
<stop offset="1" stop-color="#FFA800"/>
</linearGradient>
<linearGradient id="paint2_linear_1248_50" x1="7.50015" y1="0.327637" x2="7.50015" y2="14.6726" gradientUnits="userSpaceOnUse">
<stop stop-color="#E9CA32"/>
<stop offset="1" stop-color="#FFA800"/>
</linearGradient>
<clipPath id="clip0_1248_50">
<rect width="15" height="15" fill="white" transform="translate(46)"/>
</clipPath>
<clipPath id="clip1_1248_50">
<rect width="15" height="15" fill="white" transform="translate(23)"/>
</clipPath>
<clipPath id="clip2_1248_50">
<rect width="15" height="15" fill="white"/>
</clipPath>
</defs>
</svg>
