<svg width="44" height="50" viewBox="0 0 44 50" fill="none" xmlns="http://www.w3.org/2000/svg">
<path d="M19.918 45.957C21.1387 47.1777 23.1211 47.1777 24.3418 45.957L39.9668 30.332C41.1875 29.1113 41.1875 27.1289 39.9668 25.9082C38.7461 24.6875 36.7637 24.6875 35.543 25.9082L22.125 39.3262L8.70703 25.918C7.48633 24.6973 5.5039 24.6973 4.2832 25.918C3.06249 27.1387 3.06249 29.1211 4.2832 30.3418L19.9082 45.9668L19.918 45.957ZM4.29297 11.582L19.918 27.207C21.1387 28.4277 23.1211 28.4277 24.3418 27.207L39.9668 11.582C41.1875 10.3613 41.1875 8.37891 39.9668 7.1582C38.7461 5.9375 36.7637 5.9375 35.543 7.1582L22.125 20.5762L8.70703 7.16797C7.48632 5.94727 5.5039 5.94727 4.2832 7.16797C3.06249 8.38868 3.06249 10.3711 4.2832 11.5918L4.29297 11.582Z" fill="#E5EDF5"/>
</svg>
