<svg width="100" height="100" viewBox="0 0 100 100" fill="none" xmlns="http://www.w3.org/2000/svg">
<path fill-rule="evenodd" clip-rule="evenodd" d="M20 0C8.95431 0 0 8.9543 0 20V80C0 91.0457 8.9543 100 20 100H80C91.0457 100 100 91.0457 100 80V20C100 8.95431 91.0457 0 80 0H20ZM25.8175 29.2451H74.1825C78.4937 29.2451 82.0008 32.5537 82 36.6209V62.8595C82 66.9258 78.4929 70.2344 74.1825 70.2344H25.8175C21.5071 70.2344 18 66.9258 18 62.8595V36.6201C18 32.5537 21.5071 29.2451 25.8175 29.2451ZM50 46.4328L70.3626 34.0564H29.6374L50 46.4328ZM23.1 62.8603C23.1 64.2732 24.3189 65.4239 25.8175 65.4239H74.1825C75.6811 65.4239 76.9008 64.2732 76.9017 62.8595V36.7572L51.5751 52.1214C51.5555 52.1329 51.5351 52.1423 51.5146 52.1518C51.4995 52.1587 51.4844 52.1657 51.4697 52.1735C51.4331 52.1927 51.3957 52.2112 51.3583 52.2288C51.1611 52.3243 50.9597 52.4012 50.7531 52.4518C50.741 52.455 50.7288 52.4571 50.7167 52.4593C50.7076 52.4609 50.6985 52.4625 50.6894 52.4646C50.4624 52.5159 50.2329 52.5464 50.0034 52.5464H50H49.9983C49.7688 52.5464 49.5393 52.5151 49.3123 52.4646C49.3032 52.4625 49.2941 52.4609 49.285 52.4593C49.2729 52.4571 49.2607 52.455 49.2486 52.4518C49.042 52.4012 48.8397 52.3243 48.6434 52.2288C48.606 52.2112 48.5686 52.1927 48.532 52.1735C48.5173 52.1657 48.5022 52.1587 48.4871 52.1518C48.4666 52.1423 48.4462 52.1329 48.4267 52.1214L23.1 36.7572V62.8603Z" fill="#175892"/>
</svg>
